<svg width="50" height="68" viewBox="0 0 50 68" fill="none" xmlns="http://www.w3.org/2000/svg">
<path d="M0.146254 67.4181L24.4242 11.4764H25.0092L49.2872 67.4181H37.002L21.4992 28.0761L29.1774 22.811L10.6033 67.4181H0.146254ZM16.7459 47.9665H32.9069L36.6363 56.8879H13.4553L16.7459 47.9665Z" fill="#BF1304"/>
<path d="M6.87388 67.4181L25.0824 25.4618H25.5211L43.7296 67.4181H34.5157L22.8886 37.9116L28.6473 33.9628L14.7167 67.4181H6.87388ZM19.3237 52.8294H31.4444L34.2414 59.5205H16.8556L19.3237 52.8294Z" fill="#F27405"/>
<path d="M12.4315 67.4181L24.8896 39.6301H25.2468L37.6601 67.4181H32.3465L18.9061 61.3325L27.792 46.5659L18.1917 67.4181H12.4315ZM20.2011 61.9589H30.0693L32.3465 67.4181H18.1917L20.2011 61.9589Z" fill="#FBD4B1"/>
<path d="M19.3785 67.4181L24.9756 49.1365H25.1361L30.7131 67.4181H28.3258L22.2874 63.4144L26.2796 53.6995L21.9664 67.4181H19.3785ZM22.8692 63.8266H27.3027L28.3258 67.4181H21.9664L22.8692 63.8266Z" fill="white"/>
<path fill-rule="evenodd" clip-rule="evenodd" d="M48.9947 67.4181L20.1098 1.23871L21.1151 0.799927L50 66.9793L48.9947 67.4181Z" fill="black"/>
<path fill-rule="evenodd" clip-rule="evenodd" d="M4.42785e-06 67.4181L28.8849 1.23871L29.8902 1.67749L1.00532 67.8569L4.42785e-06 67.4181Z" fill="black"/>
<path fill-rule="evenodd" clip-rule="evenodd" d="M48.9947 67.4181L20.1098 1.23871L21.1151 0.799927L50 66.9793L48.9947 67.4181Z" fill="black"/>
</svg>
